# xmcd CD database file
#
# Track frame offsets:
#	150
#	10116
#	19792
#	34479
#	48616
#	62878
#	95030
#	106896
#	124520
#	133055
#
# Disc length: 1933 seconds
#
# Revision: 0
# Processed by: cddbd v1.5.1PL0 Copyright (c) Steve Scherf et al.
# Submitted via: CdAid (MTCDDB.DLL V2003.07.15)
#
DISCID=88078b0a
DTITLE=Rachel Browning - Good Thing Going
DYEAR=2002
DGENRE=Country
TTITLE0=No Regrets
TTITLE1=Rain
TTITLE2=Good Thing Going
TTITLE3=15 Years,  7 months
TTITLE4=Sugar Down Blues
TTITLE5=Don't Leave Me, Daddy
TTITLE6=Any Old Reason
TTITLE7=Master Of My Heart
TTITLE8=Good As Some
TTITLE9=Amazing Grace
EXTD=ID3G:   2 YEAR: 2002
EXTT0=
EXTT1=
EXTT2=
EXTT3=
EXTT4=
EXTT5=
EXTT6=
EXTT7=
EXTT8=
EXTT9=
PLAYORDER=
